Coordinates
version=1
nRows=29
nColumns=24
inDegrees=yes

Units are S.I. units (second, meters, Newtons, ...)
Angles are in degrees.

endheader
time	pelvis_tilt	pelvis_list	pelvis_rotation	pelvis_tx	pelvis_ty	pelvis_tz	hip_flexion_r	hip_adduction_r	hip_rotation_r	knee_angle_r	ankle_angle_r	subtalar_angle_r	mtp_angle_r	hip_flexion_l	hip_adduction_l	hip_rotation_l	knee_angle_l	ankle_angle_l	subtalar_angle_l	mtp_angle_l	lumbar_extension	lumbar_bending	lumbar_rotation
      0.67800000	      4.26095646	      3.94478834	      2.98476237	      0.01985793	      0.97167521	      0.25967891	     20.82745485	     -6.06114962	     -5.94310133	      5.81001305	      4.42153774	     -2.17684927	      0.26787416	    -32.52553494	      4.82412675	     11.68953587	      5.32095937	      8.63068154	    -10.12255966	     -0.03927704	    -16.58095932	      6.57241336	    -14.24458836
      0.68216667	      4.19369822	      3.83388098	      3.04813175	      0.02608656	      0.97083693	      0.26002493	     20.91526552	     -5.94639424	     -5.41406902	      5.33703445	      4.12096589	     -2.81749219	      0.36053625	    -32.67260933	      4.66969030	     11.46853959	      5.03028560	      8.59505089	     -9.86763073	     -0.10428971	    -16.45743561	      6.73950086	    -14.23026680
      0.68633333	      4.12811552	      3.69741373	      3.11700266	      0.03236959	      0.97004392	      0.26037547	     21.00428219	     -5.80289959	     -4.90917121	      4.81576617	      3.80071546	     -3.48145095	      0.45225076	    -32.80082460	      4.49046863	     11.20211538	      4.69792092	      8.56533604	     -9.55585307	     -0.12295750	    -16.34080794	      6.94744432	    -14.21181794
      0.69050000	      4.05049255	      3.54437264	      3.17372428	      0.03869526	      0.96925922	      0.26078012	     21.11650006	     -5.63181106	     -4.39570055	      4.24936608	      3.41714947	     -4.16901205	      0.53605666	    -32.91046008	      4.30013304	     10.92609496	      4.35749163	      8.51263448	     -9.24922367	     -0.09298568	    -16.19996335	      7.16035917	    -14.18719937
      0.69466667	      3.96914553	      3.37297744	      3.22411748	      0.04507427	      0.96849965	      0.26120573	     21.23721810	     -5.43570647	     -3.89617369	      3.65143081	      2.96217676	     -4.86926217	      0.61435401	    -33.00930721	      4.09579149	     10.63836986	      4.00455961	      8.43880475	     -8.95383665	     -0.01883743	    -16.05015875	      7.39687285	    -14.15320319
      0.69883333	      3.88034838	      3.18386500	      3.26834905	      0.05149485	      0.96776601	      0.26166756	     21.37111205	     -5.21272618	     -3.40636528	      3.02645189	      2.43144656	     -5.60380901	      0.69622745	    -33.08264269	      3.87910403	     10.32847214	      3.61822145	      8.35142320	     -8.66138253	      0.10475439	    -15.89341295	      7.65087139	    -14.10865931
      0.70300000	      3.78947066	      2.97669800	      3.30896101	      0.05795746	      0.96706299	      0.26215142	     21.50966617	     -4.96439540	     -2.93188448	      2.38322239	      1.83160649	     -6.35509686	      0.78815202	    -33.13793935	      3.64856354	      9.99615606	      3.20230322	      8.24273624	     -8.38182259	      0.28923708	    -15.73640931	      7.92974998	    -14.05791453
      0.70716667	      3.68257518	      2.75771407	      3.33440539	      0.06447049	      0.96636280	      0.26267874	     21.68558277	     -4.69426408	     -2.48513138	      1.69267520	      1.15884683	     -7.08571158	      0.87583051	    -33.18396509	      3.41125997	      9.68393567	      2.80595945	      8.10129060	     -8.11911546	      0.50309890	    -15.54205210	      8.21242139	    -14.00577989
      0.71133333	      3.57221153	      2.51773236	      3.35617993	      0.07102405	      0.96569954	      0.26323500	     21.86966704	     -4.39541658	     -2.06846750	      0.98618726	      0.42364602	     -7.82944703	      0.97113203	    -33.20437359	      3.15783253	      9.34173838	      2.36817212	      7.93472256	     -7.86860999	      0.76558627	    -15.34739983	      8.51972243	    -13.94487597
      0.71550000	      3.45297326	      2.26249377	      3.36910792	      0.07761538	      0.96505287	      0.26383055	     22.07925838	     -4.07357608	     -1.68092119	      0.24464899	     -0.36096917	     -8.56151731	      1.07483795	    -33.20644006	      2.89275725	      8.99689100	      1.91481528	      7.74469139	     -7.62310525	      1.07723000	    -15.14474189	      8.83697624	    -13.87877449
      0.71966667	      3.33088218	      1.99707679	      3.37632198	      0.08423853	      0.96444388	      0.26444589	     22.30479606	     -3.73645281	     -1.33250700	     -0.52841524	     -1.18381462	     -9.27407937	      1.19333109	    -33.18745412	      2.62218403	      8.63293951	      1.42963426	      7.52822382	     -7.39024225	      1.45049878	    -14.93626347	      9.17402331	    -13.81035042
      0.72383333	      3.19913156	      1.71940849	      3.37417689	      0.09089673	      0.96384937	      0.26510140	     22.56073727	     -3.38004061	     -1.02056767	     -1.34525014	     -2.03052113	     -9.95747444	      1.32456291	    -33.15045013	      2.34249857	      8.27657322	      0.93259507	      7.28172452	     -7.17956853	      1.88278019	    -14.71489278	      9.51491832	    -13.73546370
      0.72800000	      3.07579290	      1.43296295	      3.36497644	      0.09758149	      0.96330767	      0.26578105	     22.81758832	     -3.00950443	     -0.74239895	     -2.18628956	     -2.88437480	    -10.62816491	      1.50131359	    -33.09788800	      2.05793478	      7.88262579	      0.39003566	      7.00003667	     -6.95950005	      2.47413170	    -14.49798187	      9.87493891	    -13.66071298
      0.73216667	      2.95450574	      1.12938000	      3.33171998	      0.10430085	      0.96277225	      0.26648357	     23.13297045	     -2.61932448	     -0.60107046	     -3.15511363	     -3.63766209	    -10.99758055	      3.39089128	    -33.03191563	      1.76575413	      7.38346702	     -0.16708051	      6.61153838	     -6.65757624	      8.59577003	    -14.30972822	     10.24295790	    -13.55066434
      0.73633333	      2.80542961	      0.82749903	      3.31284103	      0.11104305	      0.96225786	      0.26721232	     23.46580132	     -2.22844403	     -0.41696933	     -4.11198730	     -4.42677928	    -11.57061882	      3.39594500	    -32.96186325	      1.46864037	      7.14501810	     -0.67900990	      6.19654528	     -6.69166129	      8.66235461	    -14.05924445	     10.61938582	    -13.51525639
      0.74050000	      2.66218408	      0.52390540	      3.27177758	      0.11779841	      0.96177455	      0.26798686	     23.81950304	     -1.82772270	     -0.26281106	     -5.13091676	     -5.14736718	    -12.05859535	      3.41668986	    -32.86280819	      1.17985291	      6.80582238	     -1.25958828	      5.79803672	     -6.58434782	      8.80259049	    -13.82744066	     10.98919896	    -13.43666027
      0.74466667	      2.56277080	      0.19928046	      3.21995009	      0.12459911	      0.96136827	      0.26875910	     24.15651527	     -1.40708631	     -0.21769860	     -6.23106777	     -5.69559651	    -12.31116281	      3.42504183	    -32.82109905	      0.87329704	      6.48396967	     -1.81006121	      5.28465911	     -6.55271758	      8.87678412	    -13.64030982	     11.40803986	    -13.37176319
      0.74883333	      2.37719791	     -0.08207125	      3.15392133	      0.13136481	      0.96088991	      0.26963719	     24.59707573	     -1.01581101	     -0.07525821	     -7.35373806	     -6.32291591	    -12.80710742	      3.46345367	    -32.62080259	      0.61446515	      6.12223557	     -2.49802948	      4.90442264	     -6.38559137	      9.14918679	    -13.36939869	     11.72358008	    -13.28250510
      0.75300000	      2.27358591	     -0.41054952	      3.08820961	      0.13819073	      0.96053715	      0.27049021	     24.95979069	     -0.58360181	     -0.06911914	     -8.51845548	     -6.79847589	    -13.06207317	      4.23835871	    -32.51255024	      0.30013787	      5.68348414	     -3.15269579	      4.31217780	     -6.20274179	     14.17436944	    -13.19718293	     12.11702719	    -13.17759720
      0.75716667	      2.18899434	     -0.72767885	      2.99157091	      0.14501902	      0.96021330	      0.27139840	     25.32846631	     -0.14716031	     -0.02503635	     -9.76142251	     -7.06675120	    -13.29724816	      4.23675537	    -32.44616393	      0.01644187	      5.38487522	     -3.77385213	      3.71693972	     -6.23924778	     14.19363938	    -13.03937864	     12.51867590	    -13.13950622
      0.76133333	      2.07078423	     -1.02893239	      2.88667569	      0.15185508	      0.95988347	      0.27234026	     25.73887712	      0.27582837	      0.00932632	    -11.02917530	     -7.29046879	    -13.51154038	      4.23583994	    -32.31118534	     -0.24898301	      5.07944154	     -4.45553318	      3.09293493	     -6.22704965	     14.24637373	    -12.84677571	     12.88959636	    -13.07767266
      0.76550000	      1.95868895	     -1.32366934	      2.77720813	      0.15869945	      0.95958804	      0.27331099	     26.14508668	      0.69545352	      0.03898782	    -12.32217529	     -7.40921627	    -13.69473577	      4.23518345	    -32.16080424	     -0.50982401	      4.77084049	     -5.17557484	      2.45244307	     -6.20287825	     14.33213447	    -12.66273015	     13.24323292	    -13.01338888
      0.76966667	      1.79999816	     -1.56644349	      2.65702842	      0.16550307	      0.95925317	      0.27431730	     26.62489485	      1.06201469	      0.05614752	    -13.67994335	     -7.40951145	    -13.76281337	      4.22939632	    -31.90226518	     -0.71725142	      4.44557221	     -6.01080115	      1.86297151	     -6.12136102	     14.60958387	    -12.43381952	     13.50519175	    -12.93223861
      0.77383333	      1.73725155	     -1.86639512	      2.54245725	      0.17236283	      0.95906524	      0.27533164	     26.96972424	      1.49235210	      0.05244733	    -14.99673467	     -7.27401063	    -13.85788686	      3.91093203	    -31.77111133	     -0.99354779	      4.10882631	     -6.76806169	      1.05751877	     -6.09721972	     20.00516172	    -12.31474137	     13.87019963	    -12.90786693
      0.77800000	      1.67040995	     -2.17190575	      2.40385163	      0.17922081	      0.95891908	      0.27639461	     27.28962266	      1.94456961	      0.09901149	    -16.25658626	     -7.13509601	    -13.97546402	      3.90729439	    -31.62202889	     -1.25921013	      3.81391504	     -7.56175152	      0.28862117	     -6.12062839	     20.03952878	    -12.20749278	     14.22396060	    -12.84475245
      0.78216667	      1.61516897	     -2.46230752	      2.26727546	      0.18607262	      0.95881891	      0.27746178	     27.58646612	      2.38272203	      0.14165682	    -17.51417789	     -6.87740122	    -14.07057149	      3.89628782	    -31.46258553	     -1.51399362	      3.53769978	     -8.39128115	     -0.51306037	     -6.12671706	     20.11450367	    -12.10040070	     14.56833335	    -12.79722070
      0.78633333	      1.59628572	     -2.75233450	      2.13290890	      0.19291671	      0.95880933	      0.27853938	     27.81406621	      2.82619236	      0.19328010	    -18.72197592	     -6.55931204	    -14.20967944	      3.88647497	    -31.32329708	     -1.77227461	      3.27265106	     -9.24775431	     -1.35158126	     -6.14015531	     20.17982374	    -12.00774032	     14.93498470	    -12.75725784
      0.79050000	      1.55341854	     -3.03698963	      1.98237895	      0.19973706	      0.95879350	      0.27966195	     28.05438663	      3.27356565	      0.26422390	    -19.91194187	     -6.15811320	    -14.27254658	      3.86701300	    -31.13365663	     -2.02032614	      3.00588042	    -10.14566179	     -2.21773325	     -6.15119278	     20.28678290	    -11.93377793	     15.25744640	    -12.72361907
      0.79466667	      1.50671743	     -3.26621598	      1.83372352	      0.20649315	      0.95879708	      0.28075926	     28.30370137	      3.65307477	      0.28789066	    -21.12197058	     -5.65941939	    -14.16257194	      3.79777167	    -30.88810343	     -2.21673601	      2.75201641	    -11.13475708	     -3.06929102	     -6.17240325	     20.58196135	    -11.83744846	     15.51438349	    -12.69163150
